<mxfile host="app.diagrams.net" agent="Mozilla/5.0 (Windows NT 10.0; Win64; x64) AppleWebKit/537.36 (KHTML, like Gecko) Chrome/125.0.0.0 Safari/537.36" version="24.8.1" pages="2">
  <diagram name="Página-1" id="msPRzkylFATK_xLoIXuE">
    <mxGraphModel dx="2796" dy="878" grid="1" gridSize="10" guides="1" tooltips="1" connect="1" arrows="1" fold="1" page="1" pageScale="1" pageWidth="827" pageHeight="1169" math="0" shadow="0">
      <root>
        <mxCell id="0" />
        <mxCell id="1" parent="0" />
        <mxCell id="qC0ujZglw4TgO-LQhZYu-1" value="" style="shape=folder;fontStyle=1;spacingTop=10;tabWidth=40;tabHeight=14;tabPosition=left;html=1;whiteSpace=wrap;" parent="1" vertex="1">
          <mxGeometry x="-10" y="3" width="810" height="397" as="geometry" />
        </mxCell>
        <mxCell id="qC0ujZglw4TgO-LQhZYu-2" value="RIB Webservices" style="html=1;dropTarget=0;whiteSpace=wrap;" parent="1" vertex="1">
          <mxGeometry x="287" y="80" width="180" height="90" as="geometry" />
        </mxCell>
        <mxCell id="qC0ujZglw4TgO-LQhZYu-3" value="" style="shape=module;jettyWidth=8;jettyHeight=4;" parent="qC0ujZglw4TgO-LQhZYu-2" vertex="1">
          <mxGeometry x="1" width="20" height="20" relative="1" as="geometry">
            <mxPoint x="-27" y="7" as="offset" />
          </mxGeometry>
        </mxCell>
        <mxCell id="qC0ujZglw4TgO-LQhZYu-4" value="&lt;b&gt;SQL SERVER&lt;/b&gt;" style="html=1;dropTarget=0;whiteSpace=wrap;" parent="1" vertex="1">
          <mxGeometry x="559" y="80" width="180" height="90" as="geometry" />
        </mxCell>
        <mxCell id="qC0ujZglw4TgO-LQhZYu-5" value="" style="shape=module;jettyWidth=8;jettyHeight=4;" parent="qC0ujZglw4TgO-LQhZYu-4" vertex="1">
          <mxGeometry x="1" width="20" height="20" relative="1" as="geometry">
            <mxPoint x="-27" y="7" as="offset" />
          </mxGeometry>
        </mxCell>
        <mxCell id="qC0ujZglw4TgO-LQhZYu-6" value="WS Calificación de cartera" style="html=1;dropTarget=0;whiteSpace=wrap;" parent="1" vertex="1">
          <mxGeometry x="287" y="280" width="180" height="90" as="geometry" />
        </mxCell>
        <mxCell id="qC0ujZglw4TgO-LQhZYu-7" value="" style="shape=module;jettyWidth=8;jettyHeight=4;" parent="qC0ujZglw4TgO-LQhZYu-6" vertex="1">
          <mxGeometry x="1" width="20" height="20" relative="1" as="geometry">
            <mxPoint x="-27" y="7" as="offset" />
          </mxGeometry>
        </mxCell>
        <mxCell id="qC0ujZglw4TgO-LQhZYu-8" value="Frontend Automatización" style="html=1;dropTarget=0;whiteSpace=wrap;" parent="1" vertex="1">
          <mxGeometry x="16" y="80" width="180" height="90" as="geometry" />
        </mxCell>
        <mxCell id="qC0ujZglw4TgO-LQhZYu-9" value="" style="shape=module;jettyWidth=8;jettyHeight=4;" parent="qC0ujZglw4TgO-LQhZYu-8" vertex="1">
          <mxGeometry x="1" width="20" height="20" relative="1" as="geometry">
            <mxPoint x="-27" y="7" as="offset" />
          </mxGeometry>
        </mxCell>
        <mxCell id="qC0ujZglw4TgO-LQhZYu-10" style="edgeStyle=orthogonalEdgeStyle;rounded=0;orthogonalLoop=1;jettySize=auto;html=1;entryX=0;entryY=0.5;entryDx=0;entryDy=0;" parent="1" target="qC0ujZglw4TgO-LQhZYu-2" edge="1">
          <mxGeometry relative="1" as="geometry">
            <mxPoint x="250" y="125" as="sourcePoint" />
          </mxGeometry>
        </mxCell>
        <mxCell id="qC0ujZglw4TgO-LQhZYu-11" value="" style="shape=providedRequiredInterface;html=1;verticalLabelPosition=bottom;sketch=0;" parent="1" vertex="1">
          <mxGeometry x="230" y="115" width="20" height="20" as="geometry" />
        </mxCell>
        <mxCell id="qC0ujZglw4TgO-LQhZYu-12" value="" style="endArrow=none;html=1;rounded=0;entryX=0.556;entryY=0.521;entryDx=0;entryDy=0;entryPerimeter=0;" parent="1" edge="1">
          <mxGeometry width="50" height="50" relative="1" as="geometry">
            <mxPoint x="196" y="125.66" as="sourcePoint" />
            <mxPoint x="230.36000000000013" y="125.49699999999999" as="targetPoint" />
          </mxGeometry>
        </mxCell>
        <mxCell id="qC0ujZglw4TgO-LQhZYu-13" style="edgeStyle=orthogonalEdgeStyle;rounded=0;orthogonalLoop=1;jettySize=auto;html=1;entryX=0;entryY=0.5;entryDx=0;entryDy=0;" parent="1" edge="1">
          <mxGeometry relative="1" as="geometry">
            <mxPoint x="521" y="124" as="sourcePoint" />
            <mxPoint x="558" y="124" as="targetPoint" />
          </mxGeometry>
        </mxCell>
        <mxCell id="qC0ujZglw4TgO-LQhZYu-14" value="" style="shape=providedRequiredInterface;html=1;verticalLabelPosition=bottom;sketch=0;" parent="1" vertex="1">
          <mxGeometry x="501" y="114" width="20" height="20" as="geometry" />
        </mxCell>
        <mxCell id="qC0ujZglw4TgO-LQhZYu-15" value="" style="endArrow=none;html=1;rounded=0;entryX=0.556;entryY=0.521;entryDx=0;entryDy=0;entryPerimeter=0;" parent="1" edge="1">
          <mxGeometry width="50" height="50" relative="1" as="geometry">
            <mxPoint x="467" y="124.66" as="sourcePoint" />
            <mxPoint x="501.3600000000001" y="124.49699999999999" as="targetPoint" />
          </mxGeometry>
        </mxCell>
        <mxCell id="qC0ujZglw4TgO-LQhZYu-16" value="" style="shape=providedRequiredInterface;html=1;verticalLabelPosition=bottom;sketch=0;rotation=90;" parent="1" vertex="1">
          <mxGeometry x="367" y="200" width="20" height="20" as="geometry" />
        </mxCell>
        <mxCell id="qC0ujZglw4TgO-LQhZYu-17" value="" style="endArrow=none;html=1;rounded=0;exitX=0;exitY=0.5;exitDx=0;exitDy=0;exitPerimeter=0;entryX=0.5;entryY=1;entryDx=0;entryDy=0;" parent="1" source="qC0ujZglw4TgO-LQhZYu-16" target="qC0ujZglw4TgO-LQhZYu-2" edge="1">
          <mxGeometry width="50" height="50" relative="1" as="geometry">
            <mxPoint x="216" y="254.66" as="sourcePoint" />
            <mxPoint x="250.36000000000013" y="254.49699999999999" as="targetPoint" />
          </mxGeometry>
        </mxCell>
        <mxCell id="qC0ujZglw4TgO-LQhZYu-18" style="edgeStyle=orthogonalEdgeStyle;rounded=0;orthogonalLoop=1;jettySize=auto;html=1;entryX=0.5;entryY=0;entryDx=0;entryDy=0;exitX=1;exitY=0.5;exitDx=0;exitDy=0;exitPerimeter=0;" parent="1" source="qC0ujZglw4TgO-LQhZYu-16" target="qC0ujZglw4TgO-LQhZYu-6" edge="1">
          <mxGeometry relative="1" as="geometry">
            <mxPoint x="655" y="227" as="sourcePoint" />
            <mxPoint x="692" y="227" as="targetPoint" />
          </mxGeometry>
        </mxCell>
        <mxCell id="qC0ujZglw4TgO-LQhZYu-19" value="WS Firma Certificada" style="html=1;dropTarget=0;whiteSpace=wrap;" parent="1" vertex="1">
          <mxGeometry x="500" y="280" width="180" height="90" as="geometry" />
        </mxCell>
        <mxCell id="qC0ujZglw4TgO-LQhZYu-20" value="" style="shape=module;jettyWidth=8;jettyHeight=4;" parent="qC0ujZglw4TgO-LQhZYu-19" vertex="1">
          <mxGeometry x="1" width="20" height="20" relative="1" as="geometry">
            <mxPoint x="-27" y="7" as="offset" />
          </mxGeometry>
        </mxCell>
        <mxCell id="qC0ujZglw4TgO-LQhZYu-21" value="WS NotificaBI" style="html=1;dropTarget=0;whiteSpace=wrap;" parent="1" vertex="1">
          <mxGeometry x="70" y="280" width="180" height="90" as="geometry" />
        </mxCell>
        <mxCell id="qC0ujZglw4TgO-LQhZYu-22" value="" style="shape=module;jettyWidth=8;jettyHeight=4;" parent="qC0ujZglw4TgO-LQhZYu-21" vertex="1">
          <mxGeometry x="1" width="20" height="20" relative="1" as="geometry">
            <mxPoint x="-27" y="7" as="offset" />
          </mxGeometry>
        </mxCell>
        <mxCell id="qC0ujZglw4TgO-LQhZYu-24" value="" style="shape=providedRequiredInterface;html=1;verticalLabelPosition=bottom;sketch=0;rotation=90;" parent="1" vertex="1">
          <mxGeometry x="600" y="200" width="20" height="20" as="geometry" />
        </mxCell>
        <mxCell id="qC0ujZglw4TgO-LQhZYu-25" value="" style="endArrow=none;html=1;rounded=0;exitX=0;exitY=0.5;exitDx=0;exitDy=0;exitPerimeter=0;entryX=0.5;entryY=1;entryDx=0;entryDy=0;" parent="1" source="qC0ujZglw4TgO-LQhZYu-24" target="qC0ujZglw4TgO-LQhZYu-2" edge="1">
          <mxGeometry width="50" height="50" relative="1" as="geometry">
            <mxPoint x="226" y="264.65999999999997" as="sourcePoint" />
            <mxPoint x="387" y="180" as="targetPoint" />
          </mxGeometry>
        </mxCell>
        <mxCell id="qC0ujZglw4TgO-LQhZYu-26" style="edgeStyle=orthogonalEdgeStyle;rounded=0;orthogonalLoop=1;jettySize=auto;html=1;exitX=1;exitY=0.5;exitDx=0;exitDy=0;exitPerimeter=0;" parent="1" source="qC0ujZglw4TgO-LQhZYu-24" target="qC0ujZglw4TgO-LQhZYu-19" edge="1">
          <mxGeometry relative="1" as="geometry">
            <mxPoint x="665" y="237" as="sourcePoint" />
            <mxPoint x="387" y="290" as="targetPoint" />
          </mxGeometry>
        </mxCell>
        <mxCell id="qC0ujZglw4TgO-LQhZYu-28" value="" style="shape=providedRequiredInterface;html=1;verticalLabelPosition=bottom;sketch=0;rotation=90;" parent="1" vertex="1">
          <mxGeometry x="163" y="200" width="20" height="20" as="geometry" />
        </mxCell>
        <mxCell id="qC0ujZglw4TgO-LQhZYu-29" value="" style="endArrow=none;html=1;rounded=0;exitX=0;exitY=0.5;exitDx=0;exitDy=0;exitPerimeter=0;" parent="1" source="qC0ujZglw4TgO-LQhZYu-28" edge="1">
          <mxGeometry width="50" height="50" relative="1" as="geometry">
            <mxPoint x="-211" y="264.65999999999997" as="sourcePoint" />
            <mxPoint x="380" y="170" as="targetPoint" />
          </mxGeometry>
        </mxCell>
        <mxCell id="qC0ujZglw4TgO-LQhZYu-30" style="edgeStyle=orthogonalEdgeStyle;rounded=0;orthogonalLoop=1;jettySize=auto;html=1;exitX=1;exitY=0.5;exitDx=0;exitDy=0;exitPerimeter=0;" parent="1" source="qC0ujZglw4TgO-LQhZYu-28" edge="1">
          <mxGeometry relative="1" as="geometry">
            <mxPoint x="228" y="237" as="sourcePoint" />
            <mxPoint x="153" y="280" as="targetPoint" />
          </mxGeometry>
        </mxCell>
        <mxCell id="qC0ujZglw4TgO-LQhZYu-31" value="&lt;b&gt;Automatización RIB&lt;/b&gt;" style="text;html=1;align=center;verticalAlign=middle;whiteSpace=wrap;rounded=0;" parent="1" vertex="1">
          <mxGeometry x="10" y="20" width="130" height="30" as="geometry" />
        </mxCell>
        <mxCell id="qC0ujZglw4TgO-LQhZYu-61" value="" style="shape=folder;fontStyle=1;spacingTop=10;tabWidth=40;tabHeight=14;tabPosition=left;html=1;whiteSpace=wrap;" parent="1" vertex="1">
          <mxGeometry x="-71" y="440" width="810" height="397" as="geometry" />
        </mxCell>
        <mxCell id="qC0ujZglw4TgO-LQhZYu-62" value="&lt;div&gt;&amp;lt;Core Banking&amp;gt;&lt;/div&gt;AS-400" style="html=1;dropTarget=0;whiteSpace=wrap;" parent="1" vertex="1">
          <mxGeometry x="320" y="527" width="180" height="90" as="geometry" />
        </mxCell>
        <mxCell id="qC0ujZglw4TgO-LQhZYu-63" value="" style="shape=module;jettyWidth=8;jettyHeight=4;" parent="qC0ujZglw4TgO-LQhZYu-62" vertex="1">
          <mxGeometry x="1" width="20" height="20" relative="1" as="geometry">
            <mxPoint x="-27" y="7" as="offset" />
          </mxGeometry>
        </mxCell>
        <mxCell id="qC0ujZglw4TgO-LQhZYu-68" value="EIBS" style="html=1;dropTarget=0;whiteSpace=wrap;" parent="1" vertex="1">
          <mxGeometry x="6" y="527" width="180" height="90" as="geometry" />
        </mxCell>
        <mxCell id="qC0ujZglw4TgO-LQhZYu-69" value="" style="shape=module;jettyWidth=8;jettyHeight=4;" parent="qC0ujZglw4TgO-LQhZYu-68" vertex="1">
          <mxGeometry x="1" width="20" height="20" relative="1" as="geometry">
            <mxPoint x="-27" y="7" as="offset" />
          </mxGeometry>
        </mxCell>
        <mxCell id="qC0ujZglw4TgO-LQhZYu-70" style="edgeStyle=orthogonalEdgeStyle;rounded=0;orthogonalLoop=1;jettySize=auto;html=1;entryX=0;entryY=0.5;entryDx=0;entryDy=0;" parent="1" target="qC0ujZglw4TgO-LQhZYu-62" edge="1">
          <mxGeometry relative="1" as="geometry">
            <mxPoint x="240" y="572" as="sourcePoint" />
          </mxGeometry>
        </mxCell>
        <mxCell id="qC0ujZglw4TgO-LQhZYu-71" value="" style="shape=providedRequiredInterface;html=1;verticalLabelPosition=bottom;sketch=0;" parent="1" vertex="1">
          <mxGeometry x="220" y="562" width="20" height="20" as="geometry" />
        </mxCell>
        <mxCell id="qC0ujZglw4TgO-LQhZYu-72" value="" style="endArrow=none;html=1;rounded=0;entryX=0.556;entryY=0.521;entryDx=0;entryDy=0;entryPerimeter=0;" parent="1" edge="1">
          <mxGeometry width="50" height="50" relative="1" as="geometry">
            <mxPoint x="186" y="572.66" as="sourcePoint" />
            <mxPoint x="220.36000000000013" y="572.497" as="targetPoint" />
          </mxGeometry>
        </mxCell>
        <mxCell id="qC0ujZglw4TgO-LQhZYu-81" value="WS NotificaBI" style="html=1;dropTarget=0;whiteSpace=wrap;" parent="1" vertex="1">
          <mxGeometry y="740" width="180" height="90" as="geometry" />
        </mxCell>
        <mxCell id="qC0ujZglw4TgO-LQhZYu-82" value="" style="shape=module;jettyWidth=8;jettyHeight=4;" parent="qC0ujZglw4TgO-LQhZYu-81" vertex="1">
          <mxGeometry x="1" width="20" height="20" relative="1" as="geometry">
            <mxPoint x="-27" y="7" as="offset" />
          </mxGeometry>
        </mxCell>
        <mxCell id="qC0ujZglw4TgO-LQhZYu-86" value="" style="shape=providedRequiredInterface;html=1;verticalLabelPosition=bottom;sketch=0;rotation=90;" parent="1" vertex="1">
          <mxGeometry x="70" y="640" width="20" height="20" as="geometry" />
        </mxCell>
        <mxCell id="qC0ujZglw4TgO-LQhZYu-87" value="" style="endArrow=none;html=1;rounded=0;exitX=0;exitY=0.5;exitDx=0;exitDy=0;exitPerimeter=0;entryX=0.411;entryY=0.975;entryDx=0;entryDy=0;entryPerimeter=0;" parent="1" source="qC0ujZglw4TgO-LQhZYu-86" target="qC0ujZglw4TgO-LQhZYu-68" edge="1">
          <mxGeometry width="50" height="50" relative="1" as="geometry">
            <mxPoint x="-221" y="711.66" as="sourcePoint" />
            <mxPoint x="370" y="617" as="targetPoint" />
          </mxGeometry>
        </mxCell>
        <mxCell id="qC0ujZglw4TgO-LQhZYu-88" style="edgeStyle=orthogonalEdgeStyle;rounded=0;orthogonalLoop=1;jettySize=auto;html=1;exitX=1;exitY=0.5;exitDx=0;exitDy=0;exitPerimeter=0;" parent="1" source="qC0ujZglw4TgO-LQhZYu-86" edge="1">
          <mxGeometry relative="1" as="geometry">
            <mxPoint x="218" y="684" as="sourcePoint" />
            <mxPoint x="80" y="740" as="targetPoint" />
            <Array as="points">
              <mxPoint x="80" y="740" />
            </Array>
          </mxGeometry>
        </mxCell>
        <mxCell id="qC0ujZglw4TgO-LQhZYu-89" value="&lt;b&gt;GIBS&lt;/b&gt;" style="text;html=1;align=center;verticalAlign=middle;whiteSpace=wrap;rounded=0;" parent="1" vertex="1">
          <mxGeometry x="-71" y="460" width="130" height="30" as="geometry" />
        </mxCell>
        <mxCell id="qC0ujZglw4TgO-LQhZYu-92" value="Reportes Jasper Report" style="html=1;dropTarget=0;whiteSpace=wrap;" parent="1" vertex="1">
          <mxGeometry x="324" y="740" width="180" height="90" as="geometry" />
        </mxCell>
        <mxCell id="qC0ujZglw4TgO-LQhZYu-93" value="" style="shape=module;jettyWidth=8;jettyHeight=4;" parent="qC0ujZglw4TgO-LQhZYu-92" vertex="1">
          <mxGeometry x="1" width="20" height="20" relative="1" as="geometry">
            <mxPoint x="-27" y="7" as="offset" />
          </mxGeometry>
        </mxCell>
        <mxCell id="qC0ujZglw4TgO-LQhZYu-96" value="" style="shape=providedRequiredInterface;html=1;verticalLabelPosition=bottom;sketch=0;rotation=90;" parent="1" vertex="1">
          <mxGeometry x="404" y="630" width="20" height="20" as="geometry" />
        </mxCell>
        <mxCell id="qC0ujZglw4TgO-LQhZYu-97" style="edgeStyle=orthogonalEdgeStyle;rounded=0;orthogonalLoop=1;jettySize=auto;html=1;exitX=1;exitY=0.5;exitDx=0;exitDy=0;exitPerimeter=0;entryX=0.5;entryY=0;entryDx=0;entryDy=0;" parent="1" source="qC0ujZglw4TgO-LQhZYu-96" target="qC0ujZglw4TgO-LQhZYu-92" edge="1">
          <mxGeometry relative="1" as="geometry">
            <mxPoint x="552" y="674" as="sourcePoint" />
            <mxPoint x="414" y="730" as="targetPoint" />
            <Array as="points" />
          </mxGeometry>
        </mxCell>
        <mxCell id="qC0ujZglw4TgO-LQhZYu-98" value="" style="endArrow=none;html=1;rounded=0;" parent="1" edge="1">
          <mxGeometry width="50" height="50" relative="1" as="geometry">
            <mxPoint x="410" y="640" as="sourcePoint" />
            <mxPoint x="106" y="620" as="targetPoint" />
            <Array as="points">
              <mxPoint x="110" y="640" />
            </Array>
          </mxGeometry>
        </mxCell>
      </root>
    </mxGraphModel>
  </diagram>
  <diagram name="Página-2" id="hJzWQRnzadVG9m3LK9it">
    <mxGraphModel dx="1674" dy="746" grid="1" gridSize="10" guides="1" tooltips="1" connect="1" arrows="1" fold="1" page="1" pageScale="1" pageWidth="827" pageHeight="1169" math="0" shadow="0">
      <root>
        <mxCell id="0" />
        <mxCell id="1" parent="0" />
        <mxCell id="Qrmg3Vs-Gsk_AwqV7CNu-4" value="&amp;lt;&amp;lt;Device&amp;gt;&amp;gt;&lt;div&gt;VMware ESXi 8.0.2&lt;/div&gt;" style="verticalAlign=top;align=center;spacingTop=8;spacingLeft=2;spacingRight=12;shape=cube;size=10;direction=south;fontStyle=0;html=1;rounded=0;shadow=0;comic=0;labelBackgroundColor=none;strokeWidth=1;fontFamily=Verdana;fontSize=12" parent="1" vertex="1">
          <mxGeometry x="50" y="40" width="360" height="250" as="geometry" />
        </mxCell>
        <mxCell id="Qrmg3Vs-Gsk_AwqV7CNu-6" value="&amp;lt;&amp;lt;Operating System&amp;gt;&amp;gt;&lt;div&gt;Rea Hat Enterprince Linux 8&lt;/div&gt;" style="verticalAlign=top;align=center;spacingTop=8;spacingLeft=2;spacingRight=12;shape=cube;size=10;direction=south;fontStyle=0;html=1;rounded=0;shadow=0;comic=0;labelBackgroundColor=none;strokeWidth=1;fontFamily=Verdana;fontSize=12" parent="1" vertex="1">
          <mxGeometry x="80" y="90" width="280" height="190" as="geometry" />
        </mxCell>
        <mxCell id="Qrmg3Vs-Gsk_AwqV7CNu-7" value="&lt;div&gt;&amp;lt;&amp;lt;Application&amp;gt;&amp;gt;&lt;/div&gt;&lt;div&gt;Apache 2.4.37&lt;/div&gt;" style="verticalAlign=top;align=center;spacingTop=8;spacingLeft=2;spacingRight=12;shape=cube;size=10;direction=south;fontStyle=0;html=1;rounded=0;shadow=0;comic=0;labelBackgroundColor=none;strokeWidth=1;fontFamily=Verdana;fontSize=12" parent="1" vertex="1">
          <mxGeometry x="100" y="140" width="230" height="128" as="geometry" />
        </mxCell>
        <mxCell id="Qrmg3Vs-Gsk_AwqV7CNu-8" value="&lt;div style=&quot;&quot;&gt;&lt;span style=&quot;font-family: Helvetica; text-wrap: wrap; background-color: initial;&quot;&gt;«Component»&lt;/span&gt;&lt;/div&gt;&lt;b style=&quot;font-family: Helvetica; text-wrap: wrap;&quot;&gt;&lt;div style=&quot;&quot;&gt;RIB Web&lt;/div&gt;&lt;/b&gt;" style="shape=component;align=center;spacingLeft=37;rounded=0;shadow=0;comic=0;labelBackgroundColor=none;strokeWidth=1;fontFamily=Verdana;fontSize=12;html=1;verticalAlign=middle;" parent="1" vertex="1">
          <mxGeometry x="130" y="190" width="170" height="64" as="geometry" />
        </mxCell>
        <mxCell id="TAVbQNcs_L2FOUL7V5Up-1" value="&amp;lt;&amp;lt;Device&amp;gt;&amp;gt;&lt;div&gt;VMware ESXi 8.0.2&lt;/div&gt;" style="verticalAlign=top;align=center;spacingTop=8;spacingLeft=2;spacingRight=12;shape=cube;size=10;direction=south;fontStyle=0;html=1;rounded=0;shadow=0;comic=0;labelBackgroundColor=none;strokeWidth=1;fontFamily=Verdana;fontSize=12" parent="1" vertex="1">
          <mxGeometry x="520" y="40" width="360" height="250" as="geometry" />
        </mxCell>
        <mxCell id="TAVbQNcs_L2FOUL7V5Up-2" value="&amp;lt;&amp;lt;Operating System&amp;gt;&amp;gt;&lt;div&gt;Rea Hat Enterprince Linux release 8.9&lt;/div&gt;" style="verticalAlign=top;align=center;spacingTop=8;spacingLeft=2;spacingRight=12;shape=cube;size=10;direction=south;fontStyle=0;html=1;rounded=0;shadow=0;comic=0;labelBackgroundColor=none;strokeWidth=1;fontFamily=Verdana;fontSize=12" parent="1" vertex="1">
          <mxGeometry x="550" y="90" width="280" height="190" as="geometry" />
        </mxCell>
        <mxCell id="TAVbQNcs_L2FOUL7V5Up-3" value="&lt;div&gt;&amp;lt;&amp;lt;Application&amp;gt;&amp;gt;&lt;/div&gt;Jboss EAP" style="verticalAlign=top;align=center;spacingTop=8;spacingLeft=2;spacingRight=12;shape=cube;size=10;direction=south;fontStyle=0;html=1;rounded=0;shadow=0;comic=0;labelBackgroundColor=none;strokeWidth=1;fontFamily=Verdana;fontSize=12" parent="1" vertex="1">
          <mxGeometry x="570" y="140" width="230" height="128" as="geometry" />
        </mxCell>
        <mxCell id="TAVbQNcs_L2FOUL7V5Up-4" value="&lt;div style=&quot;&quot;&gt;&lt;span style=&quot;font-family: Helvetica; text-wrap: wrap; background-color: initial;&quot;&gt;«Component»&lt;/span&gt;&lt;/div&gt;&lt;b style=&quot;font-family: Helvetica; text-wrap: wrap;&quot;&gt;&lt;div style=&quot;&quot;&gt;RIB RESTful&lt;/div&gt;&lt;/b&gt;" style="shape=component;align=center;spacingLeft=37;rounded=0;shadow=0;comic=0;labelBackgroundColor=none;strokeWidth=1;fontFamily=Verdana;fontSize=12;html=1;verticalAlign=middle;" parent="1" vertex="1">
          <mxGeometry x="600" y="190" width="170" height="64" as="geometry" />
        </mxCell>
        <mxCell id="TAVbQNcs_L2FOUL7V5Up-9" value="&amp;lt;&amp;lt;Device&amp;gt;&amp;gt;&lt;div&gt;Windows Server&lt;/div&gt;" style="verticalAlign=top;align=center;spacingTop=8;spacingLeft=2;spacingRight=12;shape=cube;size=10;direction=south;fontStyle=0;html=1;rounded=0;shadow=0;comic=0;labelBackgroundColor=none;strokeWidth=1;fontFamily=Verdana;fontSize=12" parent="1" vertex="1">
          <mxGeometry x="520" y="359" width="360" height="211" as="geometry" />
        </mxCell>
        <mxCell id="TAVbQNcs_L2FOUL7V5Up-12" value="&lt;div style=&quot;&quot;&gt;&lt;span style=&quot;font-family: Helvetica; text-wrap: wrap; background-color: initial;&quot;&gt;«Component»&lt;/span&gt;&lt;/div&gt;&lt;b style=&quot;font-family: Helvetica; text-wrap: wrap;&quot;&gt;&lt;div style=&quot;&quot;&gt;SQL SERVER&lt;/div&gt;&lt;/b&gt;" style="shape=component;align=center;spacingLeft=37;rounded=0;shadow=0;comic=0;labelBackgroundColor=none;strokeWidth=1;fontFamily=Verdana;fontSize=12;html=1;verticalAlign=middle;" parent="1" vertex="1">
          <mxGeometry x="587.5" y="436" width="225" height="80" as="geometry" />
        </mxCell>
        <mxCell id="TAVbQNcs_L2FOUL7V5Up-13" value="" style="endArrow=classic;startArrow=classic;html=1;rounded=0;exitX=0;exitY=0;exitDx=120;exitDy=0;exitPerimeter=0;entryX=0.48;entryY=1;entryDx=0;entryDy=0;entryPerimeter=0;" parent="1" source="Qrmg3Vs-Gsk_AwqV7CNu-4" target="TAVbQNcs_L2FOUL7V5Up-1" edge="1">
          <mxGeometry width="50" height="50" relative="1" as="geometry">
            <mxPoint x="460" y="300" as="sourcePoint" />
            <mxPoint x="510" y="250" as="targetPoint" />
          </mxGeometry>
        </mxCell>
        <mxCell id="TAVbQNcs_L2FOUL7V5Up-14" value="&amp;lt;&amp;lt;Protocol&amp;gt;&amp;gt;&lt;div&gt;&lt;b&gt;https&lt;/b&gt;&lt;/div&gt;" style="text;html=1;align=center;verticalAlign=middle;whiteSpace=wrap;rounded=0;" parent="1" vertex="1">
          <mxGeometry x="435" y="126" width="60" height="30" as="geometry" />
        </mxCell>
        <mxCell id="TAVbQNcs_L2FOUL7V5Up-15" value="" style="endArrow=classic;startArrow=classic;html=1;rounded=0;entryX=0;entryY=0;entryDx=250;entryDy=185;entryPerimeter=0;exitX=-0.005;exitY=0.517;exitDx=0;exitDy=0;exitPerimeter=0;" parent="1" source="TAVbQNcs_L2FOUL7V5Up-9" target="TAVbQNcs_L2FOUL7V5Up-1" edge="1">
          <mxGeometry width="50" height="50" relative="1" as="geometry">
            <mxPoint x="695" y="350" as="sourcePoint" />
            <mxPoint x="510" y="250" as="targetPoint" />
          </mxGeometry>
        </mxCell>
        <mxCell id="TAVbQNcs_L2FOUL7V5Up-16" value="&amp;lt;&amp;lt;Protocol&amp;gt;&amp;gt;&lt;div&gt;&lt;b&gt;JPA&lt;/b&gt;&lt;/div&gt;" style="text;html=1;align=center;verticalAlign=middle;whiteSpace=wrap;rounded=0;" parent="1" vertex="1">
          <mxGeometry x="710" y="310" width="60" height="30" as="geometry" />
        </mxCell>
      </root>
    </mxGraphModel>
  </diagram>
</mxfile>
